<mxfile host="app.diagrams.net" agent="Mozilla/5.0 (X11; Ubuntu; Linux x86_64; rv:136.0) Gecko/20100101 Firefox/136.0" version="26.1.3">
  <diagram name="Page-1" id="K6l1NEDE6W6iyP7hpOZx">
    <mxGraphModel dx="1364" dy="758" grid="1" gridSize="10" guides="1" tooltips="1" connect="1" arrows="1" fold="1" page="1" pageScale="1" pageWidth="850" pageHeight="1100" math="0" shadow="0">
      <root>
        <mxCell id="0" />
        <mxCell id="1" parent="0" />
        <mxCell id="Y5PfRgfwk140XrELKjBb-1" value="" style="ellipse;whiteSpace=wrap;html=1;aspect=fixed;" vertex="1" parent="1">
          <mxGeometry x="230" y="100" width="510" height="510" as="geometry" />
        </mxCell>
        <mxCell id="Y5PfRgfwk140XrELKjBb-2" value="Server 0" style="rounded=1;whiteSpace=wrap;html=1;fillColor=#e1d5e7;strokeColor=#9673a6;" vertex="1" parent="1">
          <mxGeometry x="20" y="140" width="120" height="60" as="geometry" />
        </mxCell>
        <mxCell id="Y5PfRgfwk140XrELKjBb-3" value="Server 1" style="rounded=1;whiteSpace=wrap;html=1;fillColor=#dae8fc;strokeColor=#6c8ebf;" vertex="1" parent="1">
          <mxGeometry x="20" y="240" width="120" height="60" as="geometry" />
        </mxCell>
        <mxCell id="Y5PfRgfwk140XrELKjBb-4" value="Server 2" style="rounded=1;whiteSpace=wrap;html=1;fillColor=#f8cecc;strokeColor=#b85450;" vertex="1" parent="1">
          <mxGeometry x="20" y="340" width="120" height="60" as="geometry" />
        </mxCell>
        <mxCell id="Y5PfRgfwk140XrELKjBb-5" value="Server 3" style="rounded=1;whiteSpace=wrap;html=1;fillColor=#ffe6cc;strokeColor=#d79b00;" vertex="1" parent="1">
          <mxGeometry x="20" y="440" width="120" height="60" as="geometry" />
        </mxCell>
        <mxCell id="Y5PfRgfwk140XrELKjBb-6" value="S3" style="ellipse;whiteSpace=wrap;html=1;aspect=fixed;fillColor=#ffe6cc;strokeColor=#d79b00;" vertex="1" parent="1">
          <mxGeometry x="290" y="150" width="40" height="40" as="geometry" />
        </mxCell>
        <mxCell id="Y5PfRgfwk140XrELKjBb-7" value="S0" style="ellipse;whiteSpace=wrap;html=1;aspect=fixed;fillColor=#e1d5e7;strokeColor=#9673a6;" vertex="1" parent="1">
          <mxGeometry x="640" y="150" width="40" height="40" as="geometry" />
        </mxCell>
        <mxCell id="Y5PfRgfwk140XrELKjBb-8" value="S1" style="ellipse;whiteSpace=wrap;html=1;aspect=fixed;fillColor=#1ba1e2;strokeColor=#006EAF;dashed=1;fillStyle=hatch;fontColor=#ffffff;" vertex="1" parent="1">
          <mxGeometry x="640" y="520" width="40" height="40" as="geometry" />
        </mxCell>
        <mxCell id="Y5PfRgfwk140XrELKjBb-9" value="S2" style="ellipse;whiteSpace=wrap;html=1;aspect=fixed;fillColor=#f8cecc;strokeColor=#b85450;" vertex="1" parent="1">
          <mxGeometry x="290" y="520" width="40" height="40" as="geometry" />
        </mxCell>
        <mxCell id="Y5PfRgfwk140XrELKjBb-10" style="edgeStyle=orthogonalEdgeStyle;rounded=0;orthogonalLoop=1;jettySize=auto;html=1;exitX=0.5;exitY=0;exitDx=0;exitDy=0;entryX=0.5;entryY=0;entryDx=0;entryDy=0;dashed=1;" edge="1" parent="1" source="Y5PfRgfwk140XrELKjBb-11" target="Y5PfRgfwk140XrELKjBb-7">
          <mxGeometry relative="1" as="geometry" />
        </mxCell>
        <mxCell id="Y5PfRgfwk140XrELKjBb-11" value="k0" style="ellipse;whiteSpace=wrap;html=1;aspect=fixed;fillColor=#f5f5f5;strokeColor=#666666;fontColor=#333333;" vertex="1" parent="1">
          <mxGeometry x="380" y="100" width="40" height="40" as="geometry" />
        </mxCell>
        <mxCell id="Y5PfRgfwk140XrELKjBb-12" style="edgeStyle=orthogonalEdgeStyle;rounded=0;orthogonalLoop=1;jettySize=auto;html=1;exitX=1;exitY=0.5;exitDx=0;exitDy=0;dashed=1;" edge="1" parent="1" source="Y5PfRgfwk140XrELKjBb-13">
          <mxGeometry relative="1" as="geometry">
            <mxPoint x="310" y="570" as="targetPoint" />
            <Array as="points">
              <mxPoint x="770" y="430" />
              <mxPoint x="770" y="700" />
              <mxPoint x="311" y="700" />
            </Array>
          </mxGeometry>
        </mxCell>
        <mxCell id="Y5PfRgfwk140XrELKjBb-13" value="k1" style="ellipse;whiteSpace=wrap;html=1;aspect=fixed;fillColor=#f5f5f5;strokeColor=#666666;fontColor=#333333;" vertex="1" parent="1">
          <mxGeometry x="710" y="410" width="40" height="40" as="geometry" />
        </mxCell>
        <mxCell id="Y5PfRgfwk140XrELKjBb-14" style="edgeStyle=orthogonalEdgeStyle;rounded=0;orthogonalLoop=1;jettySize=auto;html=1;exitX=0.5;exitY=1;exitDx=0;exitDy=0;entryX=0.5;entryY=1;entryDx=0;entryDy=0;dashed=1;" edge="1" parent="1" source="Y5PfRgfwk140XrELKjBb-15" target="Y5PfRgfwk140XrELKjBb-9">
          <mxGeometry relative="1" as="geometry" />
        </mxCell>
        <mxCell id="Y5PfRgfwk140XrELKjBb-15" value="k2" style="ellipse;whiteSpace=wrap;html=1;aspect=fixed;fillColor=#f5f5f5;strokeColor=#666666;fontColor=#333333;" vertex="1" parent="1">
          <mxGeometry x="405" y="580" width="40" height="40" as="geometry" />
        </mxCell>
        <mxCell id="Y5PfRgfwk140XrELKjBb-16" style="edgeStyle=orthogonalEdgeStyle;rounded=0;orthogonalLoop=1;jettySize=auto;html=1;exitX=0;exitY=0.5;exitDx=0;exitDy=0;entryX=0;entryY=0.5;entryDx=0;entryDy=0;dashed=1;" edge="1" parent="1" source="Y5PfRgfwk140XrELKjBb-17" target="Y5PfRgfwk140XrELKjBb-6">
          <mxGeometry relative="1" as="geometry" />
        </mxCell>
        <mxCell id="Y5PfRgfwk140XrELKjBb-17" value="k3" style="ellipse;whiteSpace=wrap;html=1;aspect=fixed;fillColor=#f5f5f5;strokeColor=#666666;fontColor=#333333;" vertex="1" parent="1">
          <mxGeometry x="220" y="280" width="40" height="40" as="geometry" />
        </mxCell>
        <mxCell id="Y5PfRgfwk140XrELKjBb-18" value="Redistribute only k1 to S2" style="text;html=1;align=center;verticalAlign=middle;whiteSpace=wrap;rounded=0;" vertex="1" parent="1">
          <mxGeometry x="490" y="640" width="80" height="60" as="geometry" />
        </mxCell>
        <mxCell id="Y5PfRgfwk140XrELKjBb-20" style="edgeStyle=orthogonalEdgeStyle;rounded=0;orthogonalLoop=1;jettySize=auto;html=1;entryX=0.5;entryY=0;entryDx=0;entryDy=0;dashed=1;fillColor=#e51400;strokeColor=#B20000;" edge="1" parent="1" source="Y5PfRgfwk140XrELKjBb-19" target="Y5PfRgfwk140XrELKjBb-8">
          <mxGeometry relative="1" as="geometry" />
        </mxCell>
        <mxCell id="Y5PfRgfwk140XrELKjBb-19" value="Remove S1" style="text;html=1;align=center;verticalAlign=middle;whiteSpace=wrap;rounded=0;fillColor=#e51400;fontColor=#ffffff;strokeColor=#B20000;" vertex="1" parent="1">
          <mxGeometry x="530" y="480" width="60" height="40" as="geometry" />
        </mxCell>
      </root>
    </mxGraphModel>
  </diagram>
</mxfile>
